<svg xmlns="http://www.w3.org/2000/svg" xmlns:xlink="http://www.w3.org/1999/xlink" fill="none" version="1.1" width="16" height="16" viewBox="0 0 16 16"><g><g transform="matrix(0,-1,1,0,-10.518548250198364,14.784838438034058)"><path d="M6.285215093917847,14.432783344116212Q3.9002550939178464,16.81773334411621,2.9880110939178466,17.72998334411621C2.7927490939178465,17.92524334411621,2.4779750939178466,17.91813334411621,2.2827130939178466,17.72287334411621C2.2800610939178467,17.72021334411621,2.2774100939178465,17.71756334411621,2.274759093917847,17.714913344116212C2.0794973939178467,17.51965334411621,2.0893478939178465,17.21443334411621,2.2846100939178466,17.01917334411621C3.2257750939178464,16.078003344116212,5.7774350939178465,13.52634034411621,6.556355093917847,12.74742454411621C6.683995093917846,12.619783044116211,6.886465093917847,12.619782944116212,7.014105093917847,12.747424344116212C7.793025093917847,13.52634034411621,10.344685093917846,16.078003344116212,11.285855093917847,17.019163344116212C11.481115093917847,17.21443334411621,11.490965093917847,17.51965334411621,11.295705093917846,17.714913344116212C11.293045093917847,17.71756334411621,11.290395093917846,17.72021334411621,11.287745093917847,17.72287334411621C11.092485093917846,17.91813334411621,10.777705093917847,17.92524334411621,10.582445093917846,17.72997334411621Q9.670195093917847,16.81772334411621,7.285215093917847,14.432743344116211Q7.285085093917846,21.97912334411621,7.285045093917847,24.016693344116213C7.285045093917847,24.292793344116212,7.076185093917847,24.51849334411621,6.800035093917847,24.51849334411621C6.796295093917847,24.51849334411621,6.792545093917846,24.51849334411621,6.788795093917846,24.51849334411621C6.512645093917847,24.518393344116213,6.285045093917847,24.292793344116212,6.285045093917847,24.01659334411621Q6.285085093917846,21.97912334411621,6.285215093917847,14.432783344116212Z" fill="#262626" fill-opacity="1"/></g></g></svg>