<svg xmlns="http://www.w3.org/2000/svg" xmlns:xlink="http://www.w3.org/1999/xlink" fill="none" version="1.1" width="16" height="16" viewBox="0 0 16 16"><g><g><path d="M11.996404133224488,10.003827589569092C11.749464133224487,10.250777589569092,11.337034133224488,10.256797589569093,11.083194133224488,10.002957589569093C10.288354133224487,9.208117589569092,8.686554133224487,7.606317589569092,8.166814133224488,7.086577589569092C8.073704133224489,6.993467589569092,7.926004133224487,6.993467589569092,7.832894133224487,7.086577589569092C7.313154133224487,7.606317589569092,5.7113541332244875,9.208117589569092,4.916514133224487,10.002957589569093C4.662673133224487,10.256797589569093,4.250247133224487,10.250777589569092,3.9964061332244873,9.996937589569093C3.7494593332244874,9.749987589569091,3.744854133224487,9.336137589569091,3.998695133224487,9.082297589569091C4.870454133224487,8.210547589569092,6.754344133224487,6.326657589569091,7.588294133224487,5.492697589569092C7.812204133224487,5.268790789569092,8.187504133224486,5.268790789569092,8.411414133224486,5.492697589569092C9.245364133224488,6.326657589569091,11.129254133224487,8.210547589569092,12.001014133224487,9.082297589569091C12.254854133224487,9.336137589569091,12.250244133224488,9.749987589569091,11.996404133224488,10.003827589569092Z" fill="#595959" fill-opacity="1"/></g></g></svg>