<svg xmlns="http://www.w3.org/2000/svg" xmlns:xlink="http://www.w3.org/1999/xlink" fill="none" version="1.1" width="20" height="20" viewBox="0 0 20 20"><defs><clipPath id="master_svg0_24_05482"><rect x="0" y="0" width="20" height="20" rx="0"/></clipPath></defs><g clip-path="url(#master_svg0_24_05482)"><g><path d="M4.72687,12.6269C4.72687,12.6269,12.5006,12.6269,12.5006,12.6269C12.8523,12.614,13.1452,12.4902,13.3794,12.2556C13.6135,12.021,13.7373,11.7281,13.7506,11.3769C13.7506,11.3769,13.7506,3.75,13.7506,3.75C13.7377,3.39833,13.6139,3.10541,13.3794,2.87125C13.1448,2.63708,12.8519,2.51333,12.5006,2.5C12.5006,2.5,3.75061,2.5,3.75061,2.5C3.39894,2.5129200000000003,3.10602,2.63666,2.87186,2.87125C2.63769,3.10583,2.51394,3.39875,2.50061,3.75C2.50061,3.75,2.50061,14.4044,2.50061,14.4044C2.50061,14.4044,4.72687,12.6269,4.72687,12.6269ZM5.15625,13.8769C5.15625,13.8769,2.26562,16.1819,2.26562,16.1819C2.057292,16.3381,1.839169,16.360799999999998,1.611252,16.25C1.383335,16.139200000000002,1.2629166,15.9535,1.25,15.6931C1.25,15.6931,1.25,3.75,1.25,3.75C1.2629166,3.0466699999999998,1.507082,2.4575,1.982498,1.982498C2.45791,1.507498,3.0470800000000002,1.2633333,3.75,1.25C3.75,1.25,12.5,1.25,12.5,1.25C13.2033,1.2629167,13.7925,1.507082,14.2675,1.982498C14.7425,2.45791,14.9867,3.0470800000000002,15,3.75C15,3.75,15,11.3769,15,11.3769C14.9871,12.0802,14.7429,12.6694,14.2675,13.1444C13.7921,13.6194,13.2029,13.8635,12.5,13.8769C12.5,13.8769,5.15625,13.8769,5.15625,13.8769ZM16.5231,15.1269C16.5231,15.1269,7.49935,15.1269,7.49935,15.1269C7.30165,15.1196,7.1225,15.0773,6.96194,15C6.96194,15,5.26302,15,5.26302,15C5.38034,15.2341,5.53683,15.4489,5.73246,15.6444C6.20788,16.1194,6.79704,16.363500000000002,7.49996,16.3769C7.49996,16.3769,16.0937,16.3769,16.0937,16.3769C16.0937,16.3769,17.7343,18.6819,17.7343,18.6819C17.9427,18.8381,18.1608,18.8608,18.3887,18.75C18.6166,18.6392,18.737,18.4535,18.75,18.1931C18.75,18.1931,18.75,6.25,18.75,6.25C18.7371,5.54667,18.4929,4.9575,18.0175,4.4825C17.5421,4.0075,16.9529,3.76333,16.25,3.75C16.25,3.75,16.25,3.75,16.25,3.75C16.25,3.75,16.25,5.00004,16.25,5.00004C16.601399999999998,5.01307,16.8941,5.1367899999999995,17.1281,5.37125C17.3623,5.60583,17.4861,5.89875,17.4994,6.25C17.4994,6.25,17.4994,16.904400000000003,17.4994,16.904400000000003C17.4994,16.904400000000003,16.5231,15.1269,16.5231,15.1269Z" fill="#262626" fill-opacity="1"/></g></g></svg>