<svg xmlns="http://www.w3.org/2000/svg" xmlns:xlink="http://www.w3.org/1999/xlink" fill="none" version="1.1" width="24" height="24" viewBox="0 0 24 24"><g><g><path d="M11.999983007049561,13.378841347808837Q16.13878300704956,17.517621347808838,17.42518300704956,18.80392134780884C17.80588300704956,19.18472134780884,18.40178300704956,19.20472134780884,18.78248300704956,18.823921347808838C18.79628300704956,18.81012134780884,18.81008300704956,18.79632134780884,18.82388300704956,18.78252134780884C19.20468300704956,18.401821347808838,19.18468300704956,17.805721347808838,18.80398300704956,17.425021347808837Q17.51758300704956,16.138621347808837,13.37884300704956,11.999981347808838Q17.517483007049563,7.861311347808838,18.80388300704956,6.574931347808838C19.18468300704956,6.194171347808838,19.20478300704956,5.5981523478088375,18.823983007049563,5.217390347808838C18.810283007049563,5.203608347808838,18.79638300704956,5.189792347808838,18.782683007049563,5.176009347808838C18.401883007049562,4.7952473478088375,17.80588300704956,4.815206447808838,17.425083007049558,5.195967347808838Q16.13868300704956,6.482351347808838,11.999983007049561,10.621121347808838Q7.861273007049561,6.482331347808838,6.574883007049561,5.195936347808838C6.19412300704956,4.815175747808838,5.57228100704956,4.821035147808838,5.191520007049561,5.201796347808838C4.821100507049561,5.572215347808838,4.815153707049561,6.194141347808838,5.19591500704956,6.574901347808838Q6.482303007049561,7.861291347808837,10.621123007049562,11.999981347808838Q6.482493007049561,16.138821347808836,5.19609800704956,17.425221347808836C4.815336807049561,17.805921347808837,4.82119620704956,18.427821347808838,5.20195700704956,18.80852134780884C5.57237700704956,19.17892134780884,6.19412300704956,19.18472134780884,6.574883007049561,18.80392134780884Q7.861273007049561,17.517621347808838,11.999983007049561,13.378841347808837Z" fill="#595959" fill-opacity="1"/></g></g></svg>