<svg xmlns="http://www.w3.org/2000/svg" xmlns:xlink="http://www.w3.org/1999/xlink" fill="none" version="1.1" width="16" height="16" viewBox="0 0 16 16"><defs><clipPath id="master_svg0_16_2312/24_8249/16_4668"><rect x="0" y="0" width="16" height="16" rx="0"/></clipPath></defs><g clip-path="url(#master_svg0_16_2312/24_8249/16_4668)"><g><path d="M2.5,12.922C2.5,12.922,4.281499999999999,11.5,4.281499999999999,11.5C4.281499999999999,11.5,12.5005,11.5,12.5005,11.5C12.7818,11.48967,13.0162,11.39067,13.2035,11.203C13.3908,11.01533,13.4898,10.781,13.5005,10.5C13.5005,10.5,13.5005,4,13.5005,4C13.4902,3.71867,13.3912,3.48433,13.2035,3.2969999999999997C13.0158,3.10967,12.7815,3.01067,12.5005,3C12.5005,3,3.5005,3,3.5005,3C3.21917,3.0103299999999997,2.98483,3.10933,2.7975000000000003,3.2969999999999997C2.61017,3.48467,2.51117,3.7190000000000003,2.5004999999999997,4C2.5004999999999997,4,2.5004999999999997,12.922,2.5004999999999997,12.922C2.5004999999999997,12.922,2.5,12.922,2.5,12.922ZM4.625,12.5C4.625,12.5,2.3125,14.344,2.3125,14.344C2.145833,14.469,1.971333,14.4872,1.789,14.3985C1.606667,14.3098,1.5103333,14.1613,1.5,13.953C1.5,13.953,1.5,4,1.5,4C1.5103333,3.43733,1.705667,2.966,2.086,2.586C2.466333,2.206,2.93767,2.0106667,3.5,2C3.5,2,12.5,2,12.5,2C13.0627,2.0103333,13.534,2.205667,13.914,2.586C14.294,2.966333,14.4893,3.43767,14.5,4C14.5,4,14.5,10.5,14.5,10.5C14.4897,11.06267,14.2943,11.534,13.914,11.914C13.5337,12.294,13.0623,12.4893,12.5,12.5C12.5,12.5,4.625,12.5,4.625,12.5ZM5.5,8C5.5,8,10.5,8,10.5,8C10.83333,8,11,8.16667,11,8.5C11,8.83333,10.83333,9,10.5,9C10.5,9,5.5,9,5.5,9C5.16667,9,5,8.83333,5,8.5C5,8.16667,5.16667,8,5.5,8ZM5.5,5C5.5,5,10.5,5,10.5,5C10.83333,5,11,5.16667,11,5.5C11,5.83333,10.83333,6,10.5,6C10.5,6,5.5,6,5.5,6C5.16667,6,5,5.83333,5,5.5C5,5.16667,5.16667,5,5.5,5Z" fill="#595959" fill-opacity="1"/></g></g></svg>