<svg xmlns="http://www.w3.org/2000/svg" xmlns:xlink="http://www.w3.org/1999/xlink" version="1.1" width="16" height="16" viewBox="0 0 16 16"><g><g><path d="M14.2516,4.56794L14.2516,4.56794C14.4055,4.657719999999999,14.5,4.82217,14.5,5L14.5,10.5C14.5,10.66718,14.4164,10.82329,14.2774,10.91603L8.27735,14.916C8.1094,15.028,7.8906,15.028,7.72265,14.916L1.72265,10.91603C1.5835506,10.82329,1.5,10.66718,1.5,10.5L1.5,5C1.5,4.82217,1.5944556,4.657719999999999,1.748064,4.56811L1.748064,4.56811L7.74806,1.0681106C7.90375,0.9772965,8.096250000000001,0.9772965,8.251940000000001,1.0681105L14.2516,4.56794ZM12.9497,4.96615L8,2.07885L3.0503400000000003,4.96615L8,7.44098L12.9497,4.96615ZM2.5,5.80902L2.5,10.23241L7.5,13.5657L7.5,8.30902L2.5,5.80902ZM8.5,13.5657L13.5,10.23241L13.5,5.80902L8.5,8.30902L8.5,13.5657Z" fill-rule="evenodd" fill-opacity="1"/></g></g></svg>