<svg xmlns="http://www.w3.org/2000/svg" xmlns:xlink="http://www.w3.org/1999/xlink" fill="none" version="1.1" width="16" height="16" viewBox="0 0 16 16"><g><g><path d="M4.9953,1C4.52001,1,3.99995,1.337268,3.99995,1.9219110000000001L4.00461,12.0783C4.00474,12.6628,4.52472,13,4.99995,13L13.0093,13C13.4846,13,14.0046,12.6624,14.0046,12.0777L14.0001,5.70375C13.9999,5.44209,13.8972,5.19093,13.7139,5.00415L10.07968,1.2996889999999999C9.89162,1.108,9.63437,1,9.36584,1L4.9953,1ZM5.00434,11.5025L5.0002200000000006,2.49754C5.00009,2.22131,5.22454,2,5.50077,2L8.50004,2C8.77618,2,9.00004,2.22386,9.00004,2.5L9.00004,5.51038C9.00004,5.78653,9.2247,6.01275,9.50085,6.01275L12.5007,6.01275C12.7767,6.01275,13.0005,6.2364,13.0007,6.5124L13.0042,11.5076C13.0044,11.7839,12.7716,12,12.4954,12L5.5137599999999996,12C5.2377,12,5.0044699999999995,11.7785,5.00434,11.5025ZM10.00004,4.7165099999999995L10.00004,2.6464499999999997L12.3215,5.01275L10.29972,5.01275C10.13404,5.01275,10.00004,4.88219,10.00004,4.7165099999999995ZM2,14.0128L2,5.4969C2,5.22076,2.227608,5.00001,2.49625,5.00001C2.772392,5.00001,3,5.22076,3,5.4969L3,13.5127C3,13.7888,3.22386,14.0127,3.5,14.0127L7,14.0127L10.49082,14.0128C10.76696,14.0128,11,14.2404,11,14.509C11,14.7851,10.76696,15.0128,10.49081,15.0128L3,15.0128C2.447716,15.0128,2,14.565,2,14.0128Z" fill-rule="evenodd" fill="#595959" fill-opacity="1"/></g></g></svg>