<svg xmlns="http://www.w3.org/2000/svg" xmlns:xlink="http://www.w3.org/1999/xlink" fill="none" version="1.1" width="16" height="16" viewBox="0 0 16 16"><defs><clipPath id="master_svg0_24_04749/24_04585/24_03339"><rect x="0" y="0" width="16" height="16" rx="0"/></clipPath></defs><g clip-path="url(#master_svg0_24_04749/24_04585/24_03339)"><g><path d="M3.576,1.235001L1.0760008,5.235C0.9682408,5.40742,0.9756177,5.62792,1.0946604,5.79275L7.59466,14.7927C7.62594,14.836,7.66395,14.8741,7.70725,14.9053C7.93112,15.067,8.24366,15.0166,8.405339999999999,14.7927L14.9053,5.79275C15.0244,5.62792,15.0318,5.40742,14.924,5.235L12.424,1.235001C12.3326,1.0888099,12.1724,1,12,1L4,1C3.8276,1,3.66737,1.0888098,3.576,1.235001ZM4.27712,2L7.34915,2L5.11589,4.67991C5.04101,4.769769999999999,5,4.88303,5,5L2.40212,5L4.27712,2ZM2.47788,6L6.94513,12.1854L5.12588,6L2.47788,6ZM9.05488,12.1854L13.5221,6L10.87412,6L9.05488,12.1854ZM13.5979,5L11.7229,2L8.65085,2L10.88411,4.67991C10.95899,4.769769999999999,11,4.88303,11,5L13.5979,5ZM9.84915,5L8,2.78102L6.15085,5L9.84915,5ZM9.83176,6L8,12.228L6.16824,6L9.83176,6Z" fill-rule="evenodd" fill="#595959" fill-opacity="1"/></g></g></svg>