<svg xmlns="http://www.w3.org/2000/svg" xmlns:xlink="http://www.w3.org/1999/xlink" fill="none" version="1.1" width="16" height="16" viewBox="0 0 16 16"><defs><clipPath id="master_svg0_16_5535"><rect x="0" y="0" width="16" height="16" rx="0"/></clipPath></defs><g clip-path="url(#master_svg0_16_5535)"><g><path d="M1.1558244376953124,4.723552324218749Q1.2971806376953126,6.31100232421875,2.3365136376953126,8.13594232421875C0.9549206376953125,10.56645232421875,0.7654396376953125,13.01848232421875,1.8735796376953124,14.12658232421875C2.9798536376953124,15.23288232421875,5.426403637695312,15.04618232421875,7.852733637695312,13.67028232421875Q8.812723637695314,14.21318232421875,9.799893637695313,14.53168232421875Q12.599153637695313,15.43478232421875,14.016653637695313,14.01718232421875Q15.029953637695312,13.00388232421875,14.833853637695313,11.17718232421875Q14.666853637695313,9.62196232421875,13.663253637695313,7.86469232421875C15.044753637695312,5.43423232421875,15.234153637695313,2.98226232421875,14.126053637695312,1.87415132421875C13.805253637695312,1.55339232421875,13.371753637695312,1.32274732421875,12.875053637695313,1.20860632421875C11.616453637695313,0.91940132421875,9.929543637695312,1.31966832421875,8.147033637695312,2.3304623242187503Q7.186903637695313,1.78738432421875,6.199583637695312,1.46885032421875Q3.4003636376953126,0.56575332421875,1.9827916376953125,1.98332632421875Q0.9993846376953125,2.96673232421875,1.1558244376953124,4.723552324218749ZM5.4528136376953125,10.54720232421875Q6.641703637695312,11.73608232421875,7.867383637695313,12.51328232421875Q9.165473637695312,11.69558232421875,10.430233637695313,10.43080232421875Q12.797253637695313,8.06377232421875,13.598553637695312,5.58001232421875Q14.286253637695312,3.44855232421875,13.418953637695312,2.5812623242187502Q12.551653637695312,1.71396032421875,10.420203637695312,2.40162232421875Q9.761383637695312,2.61417232421875,9.110783637695313,2.9368823242187503Q10.200293637695312,3.69276232421875,11.253753637695313,4.74624232421875C11.347553637695313,4.84000232421875,11.400253637695313,4.96718232421875,11.400253637695313,5.09979232421875C11.400253637695313,5.23240232421875,11.347553637695313,5.35957232421875,11.253753637695313,5.45334232421875C11.160053637695313,5.54711232421875,11.032823637695312,5.59979232421875,10.900223637695312,5.59979232421875C10.767613637695312,5.59979232421875,10.640433637695313,5.54711232421875,10.546663637695312,5.45334232421875Q9.357893637695312,4.26457232421875,8.132363637695313,3.48739232421875Q6.834213637695313,4.30516232421875,5.569403637695313,5.56997232421875Q3.2023736376953127,7.93700232421875,2.4010436376953126,10.42077232421875Q1.7133896376953124,12.55218232421875,2.580683637695312,13.41948232421875Q3.4479836376953124,14.28678232421875,5.579433637695312,13.59918232421875Q6.238313637695312,13.38658232421875,6.888963637695312,13.06388232421875Q5.799313637695312,12.30788232421875,4.745703637695312,11.25428232421875C4.651933637695313,11.16058232421875,4.599253637695313,11.03336232421875,4.599253637695313,10.90075232421875C4.599253637695313,10.76814232421875,4.651933637695313,10.64097232421875,4.745703637695312,10.54720232421875C4.8394736376953125,10.45343232421875,4.966643637695313,10.40075232421875,5.099253637695313,10.40075232421875C5.231863637695312,10.40075232421875,5.359043637695312,10.45343232421875,5.4528136376953125,10.54720232421875ZM2.1518836376953123,4.63485232421875Q2.255803637695313,5.80191232421875,2.9467236376953125,7.16124232421875C3.4981636376953125,6.35515232421875,4.139433637695312,5.58573232421875,4.862293637695313,4.86287232421875C5.587373637695313,4.137792324218751,6.359243637695313,3.49484232421875,7.167913637695312,2.94234232421875Q6.535023637695312,2.6278223242187497,5.892543637695312,2.42054232421875Q3.6751636376953125,1.70516632421875,2.689893637695312,2.69043232421875Q2.0368866376953125,3.34344232421875,2.1518836376953123,4.63485232421875ZM8.903933637695314,7.16142232421875C8.868463637695314,7.15092232421875,8.840723637695312,7.12318232421875,8.830223637695312,7.08771232421875L8.203643637695311,4.970892324218751C8.172783637695312,4.866632324218751,8.025113637695313,4.866632324218751,7.994253637695312,4.970892324218751L7.3676736376953125,7.08771232421875C7.357173637695312,7.12318232421875,7.329433637695312,7.15092232421875,7.293963637695312,7.16142232421875L5.177143637695313,7.78800232421875C5.072883637695313,7.81886232421875,5.072883637695313,7.96653232421875,5.177143637695313,7.99739232421875L7.293963637695312,8.62397232421875C7.329433637695312,8.63447232421875,7.357173637695312,8.66221232421875,7.3676736376953125,8.69767232421875L7.994253637695312,10.81450232421875C8.025113637695313,10.91876232421875,8.172783637695312,10.91876232421875,8.203643637695311,10.81450232421875L8.830223637695312,8.69767232421875C8.840723637695312,8.66221232421875,8.868463637695314,8.63447232421875,8.903933637695314,8.62397232421875L11.020753637695313,7.99739232421875C11.125013637695313,7.96653232421875,11.125013637695313,7.81886232421875,11.020753637695313,7.78800232421875L8.903933637695314,7.16142232421875ZM10.106933637695313,13.57998232421875Q9.464603637695312,13.37278232421875,8.831853637695312,13.05838232421875C9.640483637695313,12.50588232421875,10.412303637695313,11.86298232421875,11.137353637695313,11.13788232421875C11.860353637695313,10.41485232421875,12.501853637695312,9.64521232421875,13.053353637695313,8.838892324218751Q13.717053637695313,10.14291232421875,13.839553637695312,11.28398232421875Q13.984653637695313,12.63508232421875,13.309553637695313,13.31008232421875Q12.324353637695312,14.29538232421875,10.106933637695313,13.57998232421875Z" fill-rule="evenodd" fill="currentColor" fill-opacity="1"/></g></g></svg>