<svg xmlns="http://www.w3.org/2000/svg" xmlns:xlink="http://www.w3.org/1999/xlink" fill="none" version="1.1" width="24" height="24" viewBox="0 0 24 24"><g><g><path d="M5.25,9.748709999999999L5.25,6.31066L9.43934,10.50002C9.732230000000001,10.79291,10.20711,10.79291,10.5,10.50002C10.79289,10.20713,10.7929,9.73225,10.5,9.43936L6.31066,5.25L9.748709999999999,5.25C10.16292,5.25,10.5,4.90859,10.5,4.505625C10.5,4.091411,10.171240000000001,3.75,9.75703,3.75L4.372925,3.75C4.034023,3.75,3.75,4.034023,3.75,4.372925L3.75,9.75703C3.75,10.171240000000001,4.091411,10.5,4.494375,10.5C4.90859,10.5,5.25,10.16292,5.25,9.748709999999999ZM18.75,5.25L15.0174,5.25C14.6032,5.25,14.25,4.90859,14.25,4.505625C14.25,4.091411,14.6032,3.75,15.0174,3.75L18.75,3.75C19.578400000000002,3.75,20.25,4.421574,20.25,5.25L20.25,8.98256C20.25,9.39677,19.9086,9.75,19.5056,9.75C19.0914,9.75,18.75,9.39677,18.75,8.98256L18.75,5.25ZM18.75,14.2513L18.75,17.6893L14.5673,13.50664C14.2744,13.21375,13.7889,13.21105,13.49602,13.50395L13.48409,13.51588C13.1912,13.8088,13.21377,14.2744,13.50666,14.5673L17.6893,18.75L14.2513,18.75C13.8371,18.75,13.5,19.063299999999998,13.5,19.4775L13.5,19.4944C13.5,19.9086,13.8288,20.25,14.243,20.25L19.6271,20.25C19.966,20.25,20.25,19.966,20.25,19.6271L20.25,14.243C20.25,13.8288,19.9086,13.5,19.5056,13.5C19.0914,13.5,18.75,13.8371,18.75,14.2513ZM5.25,18.75L8.98256,18.75C9.39677,18.75,9.75,19.0914,9.75,19.4944C9.75,19.9086,9.39677,20.25,8.98256,20.25L5.25,20.25C4.421574,20.25,3.75,19.578400000000002,3.75,18.75L3.75,15.0174C3.75,14.6032,4.091411,14.25,4.494375,14.25C4.90859,14.25,5.25,14.6032,5.25,15.0174L5.25,18.75Z" fill-rule="evenodd" fill="#595959" fill-opacity="1"/></g></g></svg>