<svg xmlns="http://www.w3.org/2000/svg" xmlns:xlink="http://www.w3.org/1999/xlink" fill="none" version="1.1" width="16" height="16" viewBox="0 0 16 16"><defs><clipPath id="master_svg0_10_3580/5_11198"><rect x="0" y="0" width="16" height="16" rx="0"/></clipPath></defs><g clip-path="url(#master_svg0_10_3580/5_11198)"><g><path d="M4.52249845703125,12.879799225139617Q2.9923784570312497,11.782699225139618,2.36229045703125,10.018399225139618C2.29122145703125,9.819399225139618,2.10272645703125,9.686559225139618,1.89141845703125,9.686559225139618C1.61527645703125,9.686559225139618,1.39141845703125,9.910419225139618,1.39141845703125,10.186559225139618C1.39141845703125,10.243869225139617,1.40127128703125,10.300749225139619,1.42054645703125,10.354729225139618Q2.15573145703125,12.413299225139617,3.93980845703125,13.692399225139617Q5.76348845703125,14.999999225139618,8.01448845703125,14.999999225139618Q10.91398845703125,14.999999225139618,12.96421845703125,12.949699225139618Q15.01451845703125,10.899489225139618,15.01451845703125,7.999999225139618Q15.01451845703125,5.100499225139618,12.96421845703125,3.050249225139618Q10.91398845703125,0.9999992251396179,8.01448845703125,0.9999992251396179Q6.10305845703125,0.9999992251396179,4.46489845703125,1.965525225139618Q3.41166845703125,2.586299225139618,2.65069845703125,3.496829225139618L2.50689845703125,2.390059225139618C2.4745084570312503,2.1407492251396176,2.26228745703125,1.954314225139618,2.0110474570312498,1.954314225139618C1.73490545703125,1.954314225139618,1.51104745703125,2.1781692251396176,1.51104745703125,2.454319225139618C1.51104745703125,2.475859225139618,1.51243945703125,2.497369225139618,1.51521445703125,2.5187292251396176L1.8220994570312499,4.8808292251396175C1.85767645703125,5.154669225139618,2.10851045703125,5.3478192251396175,2.38235145703125,5.312239225139618L2.3947584570312497,5.3104692251396175L4.89114845703125,4.922299225139618C5.1347684570312495,4.884409225139618,5.314388457031249,4.6746992251396176,5.314388457031249,4.4282192251396175C5.314388457031249,4.152079225139618,5.090538457031251,3.928219225139618,4.814388457031249,3.928219225139618C4.78866845703125,3.928219225139618,4.76298845703125,3.930209225139618,4.73756845703125,3.934159225139618L3.41747845703125,4.139429225139618Q4.06988845703125,3.359119225139618,4.97265845703125,2.827019225139618Q6.37582845703125,1.999999225139618,8.01448845703125,1.999999225139618Q10.49976845703125,1.999999225139618,12.25711845703125,3.7573592251396177Q14.01451845703125,5.5147192251396175,14.01451845703125,7.999999225139618Q14.01451845703125,10.485279225139617,12.25711845703125,12.242599225139617Q10.49976845703125,13.999999225139618,8.01448845703125,13.999999225139618Q6.08493845703125,13.999999225139618,4.52249845703125,12.879799225139617ZM7.50005845703125,5.499999225139618C7.50005845703125,5.223859225139618,7.72391845703125,4.999999225139618,8.000058457031251,4.999999225139618C8.27619845703125,4.999999225139618,8.500058457031251,5.223859225139618,8.500058457031251,5.499999225139618L8.500058457031251,7.770449225139618L10.85528845703125,10.148129225139618C10.94802845703125,10.241759225139617,11.00005845703125,10.368209225139617,11.00005845703125,10.499999225139618C11.00005845703125,10.776139225139618,10.77619845703125,10.999999225139618,10.50005845703125,10.999999225139618C10.36662845703125,10.999999225139618,10.23873845703125,10.946669225139617,10.14464845703125,10.851679225139618L7.64483845703125,8.328039225139618C7.55208845703125,8.234409225139618,7.50005845703125,8.107949225139617,7.50005845703125,7.976169225139618L7.50005845703125,5.499999225139618Z" fill-rule="evenodd" fill="#262626" fill-opacity="1"/></g></g></svg>