<svg xmlns="http://www.w3.org/2000/svg" xmlns:xlink="http://www.w3.org/1999/xlink" version="1.1" width="16" height="16" viewBox="0 0 16 16"><g><g><path d="M1.10009765625,7.9C1.10009765625,4.08927,4.18927765625,1.000052828,7.99999765625,1C11.81079765625,1,14.90009765625,4.089230000000001,14.90009765625,7.9C14.90009765625,7.9,14.90009765625,8.1,14.90009765625,8.1C14.90009765625,11.9108,11.81089765625,15,8.00009765625,15C4.1893776562500005,14.9999,1.10009765625,11.9107,1.10009765625,8.1C1.10009765625,8.1,1.10009765625,7.9,1.10009765625,7.9ZM13.88679765625,8.5C13.88679765625,8.5,10.88692765625,8.5,10.88692765625,8.5C10.79047765625,10.41898,10.13838765625,12.3152,8.93066765625,13.927C11.61829765625,13.5012,13.70189765625,11.2606,13.88679765625,8.5ZM10.88693765625,7.5C10.88693765625,7.5,13.88679765625,7.5,13.88679765625,7.5C13.70189765625,4.7394099999999995,11.61829765625,2.4988,8.93066765625,2.0729699999999998C10.13839765625,3.68475,10.79048765625,5.58102,10.88693765625,7.5ZM9.88552765625,7.5C9.78623765625,5.72473,9.15772765625,3.97354,7.99999765625,2.50303C6.84226765625,3.97354,6.21375765625,5.72473,6.11447765625,7.5C6.11447765625,7.5,9.88552765625,7.5,9.88552765625,7.5ZM5.11306765625,8.5C5.11306765625,8.5,2.11344765625,8.5,2.11344765625,8.5C2.2982576562499997,11.2605,4.38177765625,13.5011,7.06930765625,13.927C5.86159765625,12.3152,5.20951765625,10.41897,5.11306765625,8.5ZM5.11306765625,7.5C5.20951765625,5.58103,5.86159765625,3.68478,7.06930765625,2.07301C4.38177765625,2.49893,2.2982576562499997,4.73949,2.11344765625,7.5C2.11344765625,7.5,5.11306765625,7.5,5.11306765625,7.5ZM9.88552765625,8.5C9.88552765625,8.5,6.11447765625,8.5,6.11447765625,8.5C6.21375765625,10.27527,6.84226765625,12.0265,7.99999765625,13.497C9.15772765625,12.0265,9.78623765625,10.27527,9.88552765625,8.5Z" fill-opacity="1"/></g></g></svg>