<svg xmlns="http://www.w3.org/2000/svg" xmlns:xlink="http://www.w3.org/1999/xlink" fill="none" version="1.1" width="20" height="20" viewBox="0 0 20 20"><g><g><path d="M8.125264541854857,4.376167133178711L8.125264541854857,7.241207133178711L4.003594541854858,3.119530133178711C3.7595135418548584,2.875452933178711,3.3825985418548585,2.867753533178711,3.1385205418548585,3.1118311331787107L3.1285785418548584,3.121773133178711C2.8845013418548584,3.365851133178711,2.8756298418548583,3.759336133178711,3.1197075418548583,4.003417133178711L7.241384541854859,8.125087133178711L4.376344541854858,8.125087133178711C4.031164541854858,8.125087133178711,3.7502645418548584,8.40959713317871,3.7502645418548584,8.75477713317871L3.7502645418548584,8.76883713317871C3.7502645418548584,9.114017133178711,4.024224541854858,9.375087133178711,4.369404541854858,9.375087133178711L8.85616454185486,9.375087133178711C9.138584541854858,9.375087133178711,9.375264541854857,9.13839713317871,9.375264541854857,8.855987133178711L9.375264541854857,4.369227133178711C9.375264541854857,4.024057133178711,9.114194541854857,3.750087133178711,8.769014541854858,3.750088133178711L8.754954541854858,3.750088133178711C8.409774541854858,3.750088133178711,8.125264541854857,4.030987133178711,8.125264541854857,4.376167133178711ZM15.62512454185486,4.37501713317871L12.514644541854858,4.37501713317871C12.16946454185486,4.37501713317871,11.875104541854858,4.090507133178711,11.875104541854858,3.7547081331787107C11.875104541854858,3.409530133178711,12.16946454185486,3.125021133178711,12.514644541854858,3.125021133178711L15.62512454185486,3.125021133178711C16.31542454185486,3.125021133178711,16.87512454185486,3.6846661331787107,16.87512454185486,4.37501713317871L16.87512454185486,7.485487133178711C16.87512454185486,7.830667133178711,16.590624541854858,8.125017133178712,16.25482454185486,8.125017133178712C15.909624541854859,8.125017133178712,15.62512454185486,7.830667133178711,15.62512454185486,7.485487133178711L15.62512454185486,4.37501713317871ZM11.87526454185486,15.62397713317871L11.87526454185486,12.758967133178711L15.996924541854858,16.88067713317871C16.24102454185486,17.12467713317871,16.63452454185486,17.11587713317871,16.878624541854858,16.87177713317871L16.888524541854856,16.86187713317871C17.13262454185486,16.617777133178713,17.12492454185486,16.24087713317871,16.880824541854857,15.99677713317871L12.759144541854859,11.875087133178711L15.624224541854858,11.875087133178711C15.969324541854858,11.875087133178711,16.25022454185486,11.59057713317871,16.25022454185486,11.245397133178711L16.25022454185486,11.23133713317871C16.25022454185486,10.88615713317871,15.976324541854858,10.625087133178711,15.631124541854858,10.625087133178711L11.14436454185486,10.625087133178711C10.861954541854859,10.625087133178711,10.625264541854857,10.86177713317871,10.625264541854857,11.144187133178711L10.625264541854857,15.63097713317871C10.625264541854857,15.97607713317871,10.909774541854858,16.250077133178713,11.24557454185486,16.250077133178713C11.590754541854858,16.250077133178713,11.87526454185486,15.969177133178711,11.87526454185486,15.62397713317871ZM4.375104541854858,15.62497713317871L7.4855745418548585,15.62497713317871C7.830744541854858,15.62497713317871,8.125104541854858,15.909577133178711,8.125104541854858,16.24537713317871C8.125104541854858,16.59047713317871,7.830744541854858,16.87497713317871,7.4855745418548585,16.87497713317871L4.375104541854858,16.87497713317871C3.684751541854858,16.87497713317871,3.1251065418548585,16.31537713317871,3.1251065418548585,15.62497713317871L3.1251065418548585,12.51455713317871C3.1251065418548585,12.169377133178712,3.4096155418548584,11.87501713317871,3.7454185418548587,11.87501713317871C4.090594541854858,11.87501713317871,4.375104541854858,12.169377133178712,4.375104541854858,12.51455713317871L4.375104541854858,15.62497713317871Z" fill-rule="evenodd" fill="#595959" fill-opacity="1"/></g></g></svg>