<svg xmlns="http://www.w3.org/2000/svg" xmlns:xlink="http://www.w3.org/1999/xlink" fill="none" version="1.1" width="20" height="20" viewBox="0 0 20 20"><g><g transform="matrix(0,1,-1,0,20,-17.5)"><path d="M36.2414,2.94443C36.1505,1.9936120000000002,35.349599999999995,1.25,34.375,1.25L20.625,1.25L20.44441,1.25858307C19.493597,1.349439,18.75,2.15038,18.75,3.125L18.75,16.875L18.75858307,17.0556C18.849439,18.0064,19.65038,18.75,20.625,18.75L34.375,18.75L34.5556,18.7414C35.5064,18.6505,36.25,17.8496,36.25,16.875L36.25,3.125L36.2414,2.94443ZM34.6275,2.55321L34.6809,2.57985C34.715199999999996,2.5991999999999997,34.7477,2.62171,34.7776,2.6469899999999997L34.8425,2.71022L34.9146,2.8095499999999998C34.968900000000005,2.90214,35,3.0099400000000003,35,3.125L35,11.25L19.99916,11.25L20,3.125L20.00889,3.01972C20.02118,2.94761,20.04584,2.87954,20.08053,2.8179L20.11272,2.76701L20.1741,2.69215L20.25414,2.6216600000000003L20.34119,2.568L20.42843,2.53124C20.47148,2.51701,20.51663,2.50737,20.56332,2.50291L20.68436,2.49859L34.375,2.5L34.480199999999996,2.50887L34.5575,2.5270799999999998L34.6275,2.55321ZM20.0029,16.9366L19.99859,16.8156L20,12.5L35,12.5L35,16.875L34.9911,16.9802C34.978899999999996,17.0524,34.9541,17.1205,34.9195,17.1821L34.8793,17.244300000000003L34.789699999999996,17.3425L34.6905,17.4146C34.6288,17.4509,34.5603,17.4767,34.4874,17.4899L34.4366,17.4971L34.375,17.5L20.625,17.5L20.51971,17.4911L20.46062,17.4781L20.3688,17.4451L20.3191,17.4201L20.2449,17.3711L20.19215,17.3259L20.12165,17.2459L20.07324,17.1694L20.03124,17.0716C20.01702,17.0285,20.00736,16.9834,20.0029,16.9366ZM23.125,16.8796C22.77983,16.8796,22.5,16.599800000000002,22.5,16.2546L22.5,13.7546C22.5,13.4094,22.77983,13.1296,23.125,13.1296C23.47019,13.1296,23.75,13.4094,23.75,13.7546L23.75,16.2546C23.75,16.599800000000002,23.47019,16.8796,23.125,16.8796ZM25.625,16.8796C25.27982,16.8796,25,16.599800000000002,25,16.2546L25,13.7546C25,13.4094,25.27982,13.1296,25.625,13.1296C25.97019,13.1296,26.25,13.4094,26.25,13.7546L26.25,16.2546C26.25,16.599800000000002,25.97019,16.8796,25.625,16.8796ZM28.125,16.8796C27.77983,16.8796,27.5,16.599800000000002,27.5,16.2546L27.5,13.7546C27.5,13.4094,27.77983,13.1296,28.125,13.1296C28.470190000000002,13.1296,28.75,13.4094,28.75,13.7546L28.75,16.2546C28.75,16.599800000000002,28.470190000000002,16.8796,28.125,16.8796Z" fill-rule="evenodd" fill="#595959" fill-opacity="1"/></g></g></svg>