<svg xmlns="http://www.w3.org/2000/svg" xmlns:xlink="http://www.w3.org/1999/xlink" fill="none" version="1.1" width="20" height="20" viewBox="0 0 20 20"><g><g><path d="M15,10C15,10.69035,15.5597,11.25,16.25,11.25C16.9403,11.25,17.5,10.69035,17.5,10C17.5,9.309654,16.9403,8.75,16.25,8.75C15.5597,8.75,15,9.309654,15,10ZM3.75,11.25C3.059692,11.25,2.5,10.69035,2.5,10C2.5,9.309654,3.059692,8.75,3.75,8.75C4.44031,8.75,5,9.309654,5,10C5,10.69035,4.44031,11.25,3.75,11.25ZM8.75,10C8.75,10.69035,9.30969,11.25,10,11.25C10.69031,11.25,11.25,10.69035,11.25,10C11.25,9.309654,10.69031,8.75,10,8.75C9.30969,8.75,8.75,9.309654,8.75,10Z" fill="#595959" fill-opacity="1"/></g></g></svg>