<svg xmlns="http://www.w3.org/2000/svg" xmlns:xlink="http://www.w3.org/1999/xlink" fill="none" version="1.1" width="18" height="18" viewBox="0 0 18 18"><defs><clipPath id="master_svg0_24_01894/24_02478"><rect x="0" y="0" width="18" height="18" rx="0"/></clipPath></defs><g clip-path="url(#master_svg0_24_01894/24_02478)"><g><path d="M10.10033,2.25L3.375,2.25Q2.42606,2.2687896,1.7842500000000001,2.9381690000000003Q1.1424375,3.60755,1.125,4.5987L1.125,16.287C1.136625,16.5317,1.245,16.7061,1.4501249999999999,16.810200000000002C1.65525,16.9143,1.851562,16.893,2.039062,16.7462L4.64062,14.5807L13.5,14.5807Q14.4489,14.5619,15.0907,13.8925C15.5186,13.4463,15.7384,12.8927,15.75,12.23198L15.75,7.87472C15.75,7.56422,15.4983,7.3125,15.1878,7.3125C14.8773,7.3125,14.6256,7.56422,14.6256,7.87473L14.6256,12.23198C14.6136,12.562,14.5022,12.8372,14.2914,13.0575C14.0807,13.2779,13.8171,13.3942,13.5006,13.4063L4.2541899999999995,13.4063L2.25056,15.0758L2.25056,4.5987Q2.26856,4.1037099999999995,2.58469,3.77313Q2.90081,3.4425499999999998,3.37556,3.42435L10.10033,3.42434C10.42462,3.42434,10.6875,3.161452,10.6875,2.837168C10.6875,2.512884,10.42462,2.25,10.10033,2.25" fill-rule="evenodd" fill="#1159FF" fill-opacity="1"/></g><g><path d="M10.1963029671875,4.396C10.0997673671875,4.43173,10.0997673671875,4.56827,10.1963034671875,4.604L12.2009013671875,5.34586C12.4103713671875,5.42337,12.5755213671875,5.58853,12.6530413671875,5.79799L13.3949013671875,7.8026C13.4306313671875,7.89913,13.5671713671875,7.89913,13.6029013671875,7.8026L14.3447613671875,5.79799C14.4222813671875,5.58853,14.5874313671875,5.42337,14.7968913671875,5.34586L16.801501367187498,4.604C16.8980313671875,4.56827,16.8980313671875,4.43173,16.801501367187498,4.396L14.7968913671875,3.65414C14.5874313671875,3.57662,14.4222813671875,3.41147,14.3447613671875,3.202L13.6029013671875,1.1974019C13.5671713671875,1.1008661,13.4306313671875,1.100866,13.3949013671875,1.1974018L12.6530413671875,3.202C12.5755213671875,3.41147,12.4103713671875,3.57662,12.2009013671875,3.65414L10.1963029671875,4.396Z" fill="#1159FF" fill-opacity="1"/></g></g></svg>