<svg xmlns="http://www.w3.org/2000/svg" xmlns:xlink="http://www.w3.org/1999/xlink" fill="none" version="1.1" width="20" height="20" viewBox="0 0 20 20"><defs><clipPath id="master_svg0_24_06308"><rect x="0" y="0" width="20" height="20" rx="0"/></clipPath></defs><g clip-path="url(#master_svg0_24_06308)"><g><path d="M11.22259,2.5L3.75,2.5Q2.69562,2.5208773,1.9825,3.264633Q1.269375,4.00839,1.25,5.1096699999999995L1.25,18.0967C1.2629167,18.368499999999997,1.383333,18.5623,1.61125,18.678C1.839167,18.7937,2.057292,18.77,2.26562,18.6069L5.15625,16.2008L15,16.2008Q16.0544,16.1799,16.7675,15.4361C17.2429,14.9403,17.4871,14.3253,17.5,13.5911L17.5,8.749690000000001C17.5,8.40469,17.2203,8.125,16.8753,8.125C16.5303,8.125,16.2506,8.40469,16.2506,8.7497L16.2506,13.5911C16.237299999999998,13.9577,16.113500000000002,14.2635,15.8794,14.5084C15.6452,14.7533,15.3523,14.8824,15.0006,14.8959L4.72687,14.8959L2.50062,16.7509L2.50062,5.1096699999999995Q2.52062,4.55968,2.87187,4.19237Q3.2231199999999998,3.8250599999999997,3.75062,3.80483L11.22259,3.8048200000000003C11.5829,3.8048200000000003,11.875,3.51272,11.875,3.152409C11.875,2.792094,11.5829,2.5,11.22259,2.5" fill-rule="evenodd" fill="#262626" fill-opacity="1"/></g><g><path d="M11.329225496875,4.88445C11.221963696875,4.9241399999999995,11.221963696875,5.07585,11.329226096875,5.11555L13.556559296875001,5.93984C13.789299296875,6.02597,13.972809296874999,6.20948,14.058939296875,6.44222L14.883229296875001,8.669550000000001C14.922929296875001,8.776810000000001,15.074629296874999,8.776810000000001,15.114329296874999,8.669550000000001L15.938619296875,6.44222C16.024749296875,6.20948,16.208259296875,6.02597,16.440999296875,5.93984L18.668329296875,5.11555C18.775589296875,5.07585,18.775589296875,4.9241399999999995,18.668329296875,4.88445L16.440999296875,4.06016C16.208259296875,3.97403,16.024749296875,3.79052,15.938619296875,3.55778L15.114329296874999,1.3304465C15.074629296874999,1.2231845,14.922929296875001,1.2231845,14.883229296875001,1.3304464L14.058939296875,3.55778C13.972809296874999,3.79052,13.789299296875,3.97403,13.556559296875001,4.06016L11.329225496875,4.88445Z" fill="#1159FF" fill-opacity="1"/></g></g></svg>