<svg xmlns="http://www.w3.org/2000/svg" xmlns:xlink="http://www.w3.org/1999/xlink" fill="none" version="1.1" width="24" height="24" viewBox="0 0 24 24"><defs><clipPath id="master_svg0_72_7581"><rect x="0" y="0" width="24" height="24" rx="0"/></clipPath></defs><g clip-path="url(#master_svg0_72_7581)"><g><path d="M12,23C18.0751,23,23,18.0751,23,12C23,5.92487,18.0751,1,12,1C5.92487,1,1,5.92487,1,12C1,18.0751,5.92487,23,12,23ZM12,2.83333C17.0626,2.83333,21.1667,6.93739,21.1667,12C21.1667,17.0626,17.0626,21.1667,12,21.1667C6.93739,21.1667,2.83333,17.0626,2.83333,12C2.83333,6.93739,6.93739,2.83333,12,2.83333Z" fill-rule="evenodd" fill="currentColor" fill-opacity="1"/></g><g><rect x="8.849990844726562" y="8.85003662109375" width="6.300000190734863" height="6.300000190734863" rx="0.9000000357627869" fill="currentColor" fill-opacity="1"/></g></g></svg>