<svg xmlns="http://www.w3.org/2000/svg" xmlns:xlink="http://www.w3.org/1999/xlink" fill="none" version="1.1" width="16" height="16" viewBox="0 0 16 16"><g><g><path d="M4.62426,12.50003800983429L2.5,12.50003800983429Q1.878679,12.50003800983429,1.43934,12.060638009834289Q1,11.62133800983429,1,11.00000800983429L1,5.000008009834289Q0.9999999403954,4.37868800983429,1.43934,3.9393480098342897Q1.8786800000000001,3.5000080098342896,2.5,3.5000080098342896L4.62426,3.5000080098342896Q4.81213,3.5000080098342896,4.95352,3.3762980098342896L7.01224,1.5749150098342897Q7.73965,0.9384350098342895,8.61982,1.3378310098342896Q9.5,1.7372270098342897,9.5,2.7037780098342896L9.5,13.296238009834289Q9.5,14.26283800983429,8.61982,14.66223800983429Q7.73965,15.06163800983429,7.01224,14.42513800983429L4.95352,12.62373800983429Q4.81213,12.50003800983429,4.62426,12.50003800983429ZM4.62426,11.50003800983429Q5.18787,11.50003800983429,5.61202,11.87113800983429L7.67075,13.67253800983429Q7.91322,13.88473800983429,8.206610000000001,13.75153800983429Q8.5,13.61843800983429,8.5,13.296238009834289L8.5,2.7037780098342896Q8.5,2.3815980098342893,8.206610000000001,2.2484680098342897Q7.91322,2.1153320098342894,7.67075,2.3274880098342896L5.61202,4.12887800983429Q5.18787,4.500008009834289,4.62426,4.500008009834289L2.5,4.500008009834289Q2.29289,4.500008009834289,2.1464499999999997,4.646458009834289Q2,4.7929080098342896,2,5.000008009834289L2,11.00000800983429Q2,11.20713800983429,2.1464499999999997,11.35353800983429Q2.29289,11.50003800983429,2.5,11.50003800983429L4.62426,11.50003800983429ZM14.4139,5.4476580098342895Q13.8515,4.27929800983429,12.83,3.3817480098342894C12.7388,3.3015780098342895,12.6215,3.2573580098342894,12.5,3.2573580098342894C12.2239,3.2573580098342894,12,3.4812080098342895,12,3.7573580098342894C12,3.9011780098342896,12.0619,4.0380280098342896,12.17,4.13295800983429Q13.0387,4.896268009834289,13.5129,5.881388009834289Q14,6.893378009834289,14,7.9999980098342895Q14,9.106618009834289,13.5129,10.11859800983429Q13.0387,11.10372800983429,12.17,11.867038009834289C12.0619,11.96193800983429,12,12.098838009834289,12,12.24263800983429C12,12.518738009834289,12.2239,12.74263800983429,12.5,12.74263800983429C12.6215,12.74263800983429,12.7388,12.69843800983429,12.83,12.61823800983429L12.8311,12.61733800983429Q13.8518,11.72013800983429,14.4139,10.552328009834289Q15,9.33476800983429,15,7.9999980098342895Q15,6.665218009834289,14.4139,5.4476580098342895Z" fill-rule="evenodd" fill="#595959" fill-opacity="1"/></g></g></svg>