<svg xmlns="http://www.w3.org/2000/svg" xmlns:xlink="http://www.w3.org/1999/xlink" fill="none" version="1.1" width="16" height="16" viewBox="0 0 16 16"><g><g><path d="M12.247699523162842,4.499999761581421Q11.638899523162841,3.7591997615814208,10.788709523162842,3.258299761581421Q9.501649523162842,2.499999761581421,7.999999523162842,2.499999761581421Q5.722119523162842,2.499999761581421,4.111059523162842,4.111059761581421Q2.499999523162842,5.722119761581421,2.499999523162842,7.999999761581421Q2.499999523162842,10.27787976158142,4.111059523162842,11.88889976158142Q5.722119523162842,13.499999761581421,7.999999523162842,13.499999761581421Q10.277879523162841,13.499999761581421,11.888899523162841,11.88889976158142Q13.499999523162842,10.27787976158142,13.499999523162842,7.999999761581421C13.499999523162842,7.723859761581421,13.723899523162842,7.499999761581421,13.999999523162842,7.499999761581421C14.276099523162841,7.499999761581421,14.499999523162842,7.723859761581421,14.499999523162842,7.999999761581421Q14.499999523162842,10.692089761581421,12.595999523162842,12.595999761581421Q10.692089523162842,14.499999761581421,7.999999523162842,14.499999761581421Q5.3079095231628415,14.499999761581421,3.403949523162842,12.595999761581421Q1.499999999999842,10.692089761581421,1.4999995231628418,7.999999761581421Q1.499999999999842,5.307909761581421,3.403949523162842,3.403949761581421Q5.3079095231628415,1.500000000000421,7.999999523162842,1.499999761581421Q9.774329523162843,1.4999998211860208,11.296329523162841,2.396724761581421Q12.086499523162841,2.862259761581421,12.699999523162841,3.5032997615814208L12.699999523162841,1.999999761581421C12.699999523162841,1.7238577615814208,12.923899523162842,1.500000000000421,13.199999523162841,1.500000000000421C13.476199523162842,1.500000000000421,13.699999523162841,1.7238577615814208,13.699999523162841,1.999999761581421L13.699999523162841,4.999999761581421C13.699999523162841,5.178279761581421,13.605099523162842,5.343079761581421,13.450899523162843,5.432519761581421C13.379599523162842,5.47387976158142,13.299199523162843,5.4969597615814205,13.216799523162841,5.499719761581421C13.216799523162841,5.499719761581421,13.199999523162841,5.499999761581421,13.199999523162841,5.499999761581421L10.253259523162841,5.499999761581421C9.977109523162841,5.499999761581421,9.753259523162841,5.276139761581421,9.753259523162841,4.999999761581421C9.753259523162841,4.723859761581421,9.977109523162841,4.499999761581421,10.253259523162841,4.499999761581421L12.247699523162842,4.499999761581421Z" fill-rule="evenodd" fill="#595959" fill-opacity="1"/></g></g></svg>