<svg xmlns="http://www.w3.org/2000/svg" xmlns:xlink="http://www.w3.org/1999/xlink" fill="none" version="1.1" width="16" height="16" viewBox="0 0 16 16"><defs><clipPath id="master_svg0_10_2969/16_6595/16_6359"><rect x="0" y="0" width="16" height="16" rx="0"/></clipPath></defs><g clip-path="url(#master_svg0_10_2969/16_6595/16_6359)"><g><path d="M8.06949,2.1145300000000002Q7.54345,2,7,2Q4.928929999999999,2,3.46447,3.46447Q2,4.928929999999999,2,7Q2,9.07107,3.46447,10.53553Q4.928929999999999,12,7,12Q9.07107,12,10.53553,10.53553Q12,9.07107,12,7C12,6.72386,12.2239,6.5,12.5,6.5C12.7761,6.5,13,6.72386,13,7Q13,9.48528,11.2426,11.2426Q9.48528,13,7,13Q4.5147200000000005,13,2.7573600000000003,11.2426Q1,9.48528,1,7Q1,4.5147200000000005,2.7573600000000003,2.7573600000000003Q4.5147200000000005,1,7,1Q7.65112,1,8.28202,1.13738C8.512270000000001,1.187536,8.6761,1.390899,8.6761,1.626031C8.6761,1.902174,8.45224,2.12603,8.1761,2.12603C8.14032,2.12603,8.10464,2.12219,8.06949,2.1145300000000002ZM14.7071,15C14.5182,15.189,14.2141,15.1959,14.0167,15.0159L11.663,12.8694L11.6464,12.8535C11.4511,12.6582,11.4511,12.3417,11.6464,12.1464C11.8353,11.9575,12.1394,11.9505,12.3369,12.1305L14.6905,14.277L14.7071,14.2929C14.9024,14.4882,14.9024,14.8047,14.7071,15Z" fill-rule="evenodd" fill="#595959" fill-opacity="1"/></g><g><path d="M7.9920502125,3.94982C7.9049935125,3.98204,7.9049935125,4.10517,7.9920506125,4.13739L9.7998178125,4.8064C9.9887178125,4.87631,10.1376578125,5.02525,10.2075578125,5.21415L10.876577812499999,7.02191C10.9087978125,7.10897,11.031927812500001,7.10897,11.0641478125,7.02191L11.7331578125,5.21415C11.8030678125,5.02525,11.9520078125,4.87631,12.1409078125,4.8064L13.9486778125,4.13739C14.0357278125,4.10517,14.0357278125,3.98204,13.9486778125,3.94982L12.1409078125,3.2808C11.9520078125,3.2109,11.8030678125,3.06196,11.7331578125,2.8730599999999997L11.0641478125,1.0652926C11.031927812500001,0.9782358,10.9087978125,0.9782358,10.876577812499999,1.0652925L10.2075578125,2.8730599999999997C10.1376578125,3.06196,9.9887178125,3.2109,9.7998178125,3.2808L7.9920502125,3.94982Z" fill="#595959" fill-opacity="1"/></g></g></svg>