<svg xmlns="http://www.w3.org/2000/svg" xmlns:xlink="http://www.w3.org/1999/xlink" fill="none" version="1.1" width="32" height="32" viewBox="0 0 32 32"><g><rect x="0" y="0" width="32" height="32" rx="16" fill="currentColor" fill-opacity="1"/><g><g transform="matrix(0.7071067690849304,0.7071067690849304,-0.7071067690849304,0.7071067690849304,7.358108546309268,-10.374350625854277)"><path d="M24.713603479003908,3.6948471069335938C25.680803479003906,3.6948471069335938,26.404303479003907,4.114730106933594,26.884203479003908,4.9544971069335935L32.888603479003905,15.462247106933594C33.15890347900391,15.935247106933593,33.266403479003905,16.433947106933594,33.21110347900391,16.958447106933594C33.159803479003905,17.44434710693359,32.97820347900391,17.881247106933593,32.66620347900391,18.269247106933594C32.35420347900391,18.657247106933596,31.966403479003908,18.928447106933593,31.50280347900391,19.082747106933596C31.002403479003906,19.249247106933595,30.49230347900391,19.251247106933594,29.972303479003905,19.088747106933596L24.713663479003905,19.088847106933592L19.454843479003905,19.088747106933596C18.934903479003907,19.251247106933594,18.424743479003908,19.249247106933595,17.924353479003905,19.082747106933596C17.460733479003906,18.928447106933593,17.072927479003905,18.657247106933596,16.760927479003907,18.269247106933594C16.448935479003907,17.881247106933593,16.267322979003907,17.44434710693359,16.216089679003908,16.958447106933594C16.160797979003906,16.433947106933594,16.268281279003908,15.935247106933593,16.538539479003905,15.462247106933594L22.542993479003904,4.9544971069335935C23.022863479003906,4.114730106933594,23.746403479003906,3.6948471069335938,24.713603479003908,3.6948471069335938ZM25.338253479003907,16.32984710693359L25.338603479003908,11.790657106933594C25.338603479003908,11.445477106933595,25.058783479003907,11.165657106933594,24.713603479003908,11.165657106933594C24.36842347900391,11.165657106933594,24.088603479003908,11.445477106933595,24.088603479003908,11.790657106933594L24.088253479003907,16.331147106933592L19.454843479003905,19.088747106933596L29.972303479003905,19.088747106933596L25.338253479003907,16.32984710693359Z" fill-rule="evenodd" fill="#FFFFFF" fill-opacity="1"/></g></g></g></svg>