<svg xmlns="http://www.w3.org/2000/svg" xmlns:xlink="http://www.w3.org/1999/xlink" fill="none" version="1.1" width="20" height="20" viewBox="0 0 20 20"><g><g><path d="M18.976582470703125,8.281739765625C18.868282470703125,7.736739765625,18.523282470703126,7.385069765625,18.096582470703126,7.385069765625L18.003282470703127,7.385069765625C16.768282470703127,7.385069765625,15.763282470703125,6.418399765625,15.759982470703125,5.226739765625C15.759982470703125,4.838399765625001,15.954982470703126,4.406739765625,15.956582470703125,4.403399765625C16.174582470703125,3.911509765625,16.007182470703125,3.334119765625,15.559982470703124,3.035069765625L15.531582470703125,3.0150697656250003L13.256582470703124,1.798403765625L13.226582470703125,1.785070765625C12.745382470703126,1.5911674656249999,12.195182470703125,1.696770465625,11.819982470703126,2.055070765625C11.569982470703126,2.305070765625,10.708282470703125,3.0117397656250002,10.046612470703124,3.0117397656250002C9.379942470703124,3.0117397656250002,8.513282470703125,2.291737765625,8.263282470703125,2.036737765625C7.889122470703125,1.678356165625,7.341232470703125,1.569168765625,6.858282470703125,1.756737565625L6.828282470703125,1.768403765625L4.474942470703125,3.013399765625L4.4466124707031245,3.031739765625C3.998972470703125,3.329629765625,3.830232470703125,3.906169765625,4.046612470703125,4.398399765624999C4.049942470703125,4.403399765625,4.243282470703125,4.835069765625001,4.243282470703125,5.223399765625C4.241612470703124,6.416739765625,3.236612470703125,7.383399765625,1.999952470703125,7.383399765625L1.904952470703125,7.383399765625C1.478282470703125,7.383399765625,1.133282470703125,7.736739765625,1.024949470703125,8.281739765625C0.914307970703125,8.850579765625,0.850206970703125,9.427489765625001,0.833282470703125,10.006739765625C0.833282470703125,10.748399765625,1.016615470703125,11.695059765625,1.024949470703125,11.735059765625C1.133282470703125,12.280059765625,1.478282470703125,12.631759765625,1.904952470703125,12.631759765625L1.999952470703125,12.631759765625C3.236612470703125,12.631759765625,4.241612470703124,13.598359765625,4.243282470703125,14.790059765625C4.243282470703125,15.178359765625,4.048282470703125,15.610059765625,4.046612470703125,15.613359765625C3.829752470703125,16.104959765625,3.996122470703125,16.681359765625,4.4416124707031255,16.981759765625L4.4699524707031255,17.001759765625L6.699952470703125,18.201759765625L6.728282470703125,18.215059765625C7.213872470703125,18.412559765625,7.770502470703125,18.300359765625,8.141612470703125,17.930059765625C8.458282470703125,17.598359765625,9.318282470703124,16.913359765625,9.953282470703124,16.913359765625C10.641612470703125,16.913359765625,11.519982470703125,17.680059765625,11.776582470703126,17.946759765625C12.144382470703125,18.319859765625,12.700082470703125,18.436159765625,13.186582470703126,18.241759765625L13.216582470703125,18.228359765625L15.529982470703125,16.998359765625L15.554982470703125,16.981759765625C16.003382470703123,16.683659765625002,16.172282470703124,16.106059765624998,15.954982470703126,15.613359765625C15.840982470703125,15.352259765625,15.774382470703125,15.072859765625,15.758282470703126,14.788359765625C15.759982470703125,13.595059765625,16.764982470703124,12.630059765625,18.001582470703124,12.630059765625L18.093282470703127,12.630059765625C18.523282470703126,12.630059765625,18.868282470703125,12.278359765625,18.976582470703125,11.735059765625C18.978282470703125,11.725059765625,19.168282470703126,10.768399765625,19.168282470703126,10.006739765625C19.152982470703126,9.427459765624999,19.089382470703125,8.850459765625,18.978282470703125,8.281739765625L18.976582470703125,8.281739765625ZM7.223282470703125,17.065059765625L5.269952470703125,16.011759765625C5.356612470703125,15.800059765625,5.531612470703125,15.305059765625,5.531612470703125,14.790059765625C5.529952470703125,13.013359765625,4.109952470703125,11.535069765625,2.271612470703125,11.401739765625C2.185432470703125,10.941339765625,2.135282470703125,10.474929765625,2.121612470703125,10.006739765625C2.121612470703125,9.506739765625,2.2266124707031247,8.865069765625,2.271612470703125,8.613399765625001C4.109952470703125,8.480069765625,5.529952470703125,7.001739765625,5.531612470703125,5.223399765625C5.531612470703125,4.7117397656249995,5.356612470703125,4.216739765625,5.269952470703125,4.0050697656250005L7.348282470703125,2.906739765625C7.423282470703125,2.981739765625,7.723282470703125,3.266739765625,8.134952470703125,3.550069765625C8.809952470703125,4.015069765625,9.451612470703125,4.248399765625,10.046612470703124,4.248399765625C10.633282470703126,4.248399765625,11.271582470703125,4.016739765625,11.941582470703125,3.5633997656250003C12.219982470703124,3.373399765625,12.483282470703125,3.163399765625,12.724982470703125,2.931739765625L14.726582470703125,4.0017397656250004C14.566682470703125,4.389279765625,14.478582470703126,4.802669765625,14.466582470703125,5.221739765625C14.468282470703125,7.000069765625,15.888282470703125,8.476739765625,17.724982470703125,8.610069765625C17.771582470703127,8.861739765625,17.876582470703124,9.508409765625,17.876582470703124,10.005069765625C17.876582470703124,10.505069765625,17.771582470703127,11.150069765625,17.726582470703125,11.400069765625C15.888282470703125,11.533399765625,14.468282470703125,13.011759765625,14.466582470703125,14.788359765625C14.466582470703125,15.300059765625,14.641582470703124,15.796759765625,14.726582470703125,16.008359765625002L12.699982470703125,17.086759765625C12.455482470703124,16.840359765625,12.190682470703125,16.615159765625002,11.908282470703124,16.413359765625C11.219982470703124,15.920059765625,10.558282470703125,15.671759765625,9.949952470703124,15.671759765625C9.343282470703125,15.671759765625,8.689952470703126,15.916759765625,8.003282470703125,16.400059765625002C7.727562470703125,16.601959765625,7.466872470703125,16.823659765625003,7.223282470703125,17.063359765625002L7.223282470703125,17.065059765625ZM13.266582470703124,10.000069765625C13.266582470703124,8.276739765624999,11.808282470703125,6.875069765625,10.018282470703125,6.875069765625C8.228282470703125,6.875069765625,6.771612470703125,8.275069765625,6.771612470703125,10.000069765625C6.771612470703125,11.723359765625,8.228282470703125,13.123359765625,10.018282470703125,13.123359765625C11.811582470703126,13.121759765625,13.268282470703125,11.720059765625,13.268282470703125,10.000069765625L13.266582470703124,10.000069765625ZM10.019952470703124,8.115069765625C11.101582470703125,8.115069765625,11.978282470703125,8.960069765625,11.978282470703125,9.998409765625C11.978282470703125,11.041739765625,11.098282470703126,11.885059765625,10.019952470703124,11.881759765625C8.939952470703124,11.881759765625,8.061612470703125,11.038399765625,8.061612470703125,9.998409765625C8.063282470703125,8.958399765625,8.939952470703124,8.115069765625,10.019952470703124,8.115069765625Z" fill="#595959" fill-opacity="1"/></g></g></svg>